<svg xmlns="http://www.w3.org/2000/svg" xmlns:xlink="http://www.w3.org/1999/xlink" viewBox="0 0 32 40" version="1.1" x="0px" y="0px"><title>Dropdown</title><desc>Created with Sketch.</desc><g stroke="none" stroke-width="1" fill="none" fill-rule="evenodd"><path d="M16.5,16.6829222 L19.3492086,14.2407434 C19.7685345,13.8813212 20.3998345,13.9298828 20.7592566,14.3492086 C21.1186788,14.7685345 21.0701172,15.3998345 20.6507914,15.7592566 L17.1507914,18.7592566 C16.7763016,19.0802478 16.2236984,19.0802478 15.8492086,18.7592566 L12.3492086,15.7592566 C11.9298828,15.3998345 11.8813212,14.7685345 12.2407434,14.3492086 C12.6001655,13.9298828 13.2314655,13.8813212 13.6507914,14.2407434 L16.5,16.6829222 Z M16.5,26.5 C10.7010101,26.5 6,21.7989899 6,16 C6,10.2010101 10.7010101,5.5 16.5,5.5 C22.2989899,5.5 27,10.2010101 27,16 C27,21.7989899 22.2989899,26.5 16.5,26.5 Z M16.5,24.5 C21.1944204,24.5 25,20.6944204 25,16 C25,11.3055796 21.1944204,7.5 16.5,7.5 C11.8055796,7.5 8,11.3055796 8,16 C8,20.6944204 11.8055796,24.5 16.5,24.5 Z" fill="#000000" fill-rule="nonzero"/></g><text x="0" y="47" fill="#000000" font-size="5px" font-weight="bold" font-family="'Helvetica Neue', Helvetica, Arial-Unicode, Arial, Sans-serif">Created by Yurii Harmash</text><text x="0" y="52" fill="#000000" font-size="5px" font-weight="bold" font-family="'Helvetica Neue', Helvetica, Arial-Unicode, Arial, Sans-serif">from the Noun Project</text></svg>